<?xml version="1.0" encoding="utf-8"?>
<svg xmlns="http://www.w3.org/2000/svg" xmlns:xlink="http://www.w3.org/1999/xlink" width="392.3" height="360.7" viewBox="0 0 392.3 360.7"><defs><linearGradient id="Unbenannter_Verlauf_14" x1="218.17" y1="157.87" x2="218.17" y2="11.76" gradientUnits="userSpaceOnUse"><stop offset="0" stop-color="#fff"/><stop offset="0.11" stop-color="#fbfbfc"/><stop offset="0.23" stop-color="#eff0f3"/><stop offset="0.34" stop-color="#dbdee4"/><stop offset="0.46" stop-color="#bec5ce"/><stop offset="0.55" stop-color="#a3acba"/><stop offset="0.67" stop-color="#95a0b0"/><stop offset="0.92" stop-color="#99a3b3"/><stop offset="1" stop-color="#9ca6b5"/></linearGradient><linearGradient id="Unbenannter_Verlauf_32" x1="114.42" y1="157.88" x2="114.42" y2="11.77" gradientTransform="matrix(-1, 0, 0, 1, 391.26, 0)" gradientUnits="userSpaceOnUse"><stop offset="0" stop-color="#fff"/><stop offset="0.35" stop-color="#fbfbfc"/><stop offset="0.71" stop-color="#eff0f3"/><stop offset="1" stop-color="#dfe2e7"/></linearGradient><linearGradient id="Unbenannter_Verlauf_37" x1="246.91" y1="-7.5" x2="248.89" y2="57.38" gradientUnits="userSpaceOnUse"><stop offset="0" stop-color="#fff"/><stop offset="0.34" stop-color="#f9fafb"/><stop offset="0.79" stop-color="#e9ebef"/><stop offset="1" stop-color="#dfe2e7"/></linearGradient><linearGradient id="Unbenannter_Verlauf_38" x1="297.69" y1="203.78" x2="297.69" y2="57.67" gradientUnits="userSpaceOnUse"><stop offset="0" stop-color="#fff"/><stop offset="0.25" stop-color="#fbfbfc"/><stop offset="0.5" stop-color="#eff0f3"/><stop offset="0.71" stop-color="#dfe2e7"/></linearGradient><linearGradient id="Unbenannter_Verlauf_32-2" x1="34.9" y1="203.79" x2="34.9" y2="57.68" xlink:href="#Unbenannter_Verlauf_32"/><linearGradient id="Unbenannter_Verlauf_32-3" x1="279.11" y1="154.59" x2="279.11" y2="8.48" xlink:href="#Unbenannter_Verlauf_32"/><linearGradient id="Unbenannter_Verlauf_14-2" x1="53.47" y1="154.58" x2="53.47" y2="8.47" xlink:href="#Unbenannter_Verlauf_14"/><linearGradient id="Unbenannter_Verlauf_38-2" x1="355.46" y1="208.89" x2="355.46" y2="62.78" gradientTransform="matrix(-1, 0, 0, 1, 391.26, 0)" xlink:href="#Unbenannter_Verlauf_38"/><linearGradient id="Unbenannter_Verlauf_38-3" x1="138.65" y1="203.78" x2="138.65" y2="57.67" xlink:href="#Unbenannter_Verlauf_38"/><linearGradient id="Unbenannter_Verlauf_32-4" x1="193.94" y1="203.79" x2="193.94" y2="57.68" xlink:href="#Unbenannter_Verlauf_32"/><linearGradient id="Unbenannter_Verlauf_39" y1="62.78" x2="65.13" y2="62.78" gradientUnits="userSpaceOnUse"><stop offset="0.29" stop-color="#fff"/><stop offset="0.54" stop-color="#f9fafb"/><stop offset="0.85" stop-color="#e9ebef"/><stop offset="1" stop-color="#dfe2e7"/></linearGradient><linearGradient id="Unbenannter_Verlauf_39-2" x1="79.71" y1="-16.65" x2="90.39" y2="69.99" xlink:href="#Unbenannter_Verlauf_39"/><linearGradient id="Unbenannter_Verlauf_38-4" x1="218.17" y1="249.68" x2="218.17" y2="103.57" xlink:href="#Unbenannter_Verlauf_38"/><linearGradient id="Unbenannter_Verlauf_32-5" x1="114.42" y1="249.69" x2="114.42" y2="103.58" xlink:href="#Unbenannter_Verlauf_32"/><linearGradient id="Neues_Verlaufsfeld_30" x1="246.85" y1="247.32" x2="323.58" y2="247.32" gradientTransform="matrix(-1, -0.02, -0.02, 1, 524.59, 3.48)" gradientUnits="userSpaceOnUse"><stop offset="0" stop-color="#04549d"/><stop offset="1" stop-color="#0b3476"/></linearGradient><linearGradient id="Unbenannter_Verlauf_15" x1="236.69" y1="168.84" x2="279.58" y2="168.84" gradientUnits="userSpaceOnUse"><stop offset="0" stop-color="#11c7e6"/><stop offset="1" stop-color="#3c9ddb"/></linearGradient><linearGradient id="Unbenannter_Verlauf_21" x1="317.09" y1="-50.5" x2="267.64" y2="-16.85" gradientTransform="matrix(-1, -0.06, 0.06, -1, 524.42, 194.73)" gradientUnits="userSpaceOnUse"><stop offset="0" stop-color="#dfe2e7"/><stop offset="0.38" stop-color="#dde0e5"/><stop offset="0.57" stop-color="#d5d9e0"/><stop offset="0.73" stop-color="#c8cdd6"/><stop offset="0.86" stop-color="#b5bcc8"/><stop offset="0.97" stop-color="#9ca7b6"/><stop offset="1" stop-color="#95a0b0"/></linearGradient><linearGradient id="Unbenannter_Verlauf_13" x1="372.56" y1="136.7" x2="403.4" y2="162.1" gradientTransform="matrix(0.15, 0.75, -0.75, 0.15, 250.74, -173.1)" gradientUnits="userSpaceOnUse"><stop offset="0" stop-color="#e7f9fc"/><stop offset="0.13" stop-color="#eaecd8"/><stop offset="0.35" stop-color="#efd9a6"/><stop offset="0.54" stop-color="#f2cb7e"/><stop offset="0.73" stop-color="#f5c161"/><stop offset="0.88" stop-color="#f6ba50"/><stop offset="1" stop-color="#f7b84a"/></linearGradient><linearGradient id="Unbenannter_Verlauf_20" x1="273.34" y1="87.88" x2="302.89" y2="112.22" gradientTransform="matrix(0.99, 0.12, -0.12, 0.99, -112.22, -17.73)" gradientUnits="userSpaceOnUse"><stop offset="0" stop-color="#fff"/><stop offset="0.14" stop-color="#fdf0d8"/><stop offset="0.35" stop-color="#fbdca6"/><stop offset="0.55" stop-color="#f9cc7e"/><stop offset="0.73" stop-color="#f8c161"/><stop offset="0.88" stop-color="#f7ba50"/><stop offset="1" stop-color="#f7b84a"/></linearGradient><linearGradient id="Unbenannter_Verlauf_13-2" x1="217.73" y1="98.56" x2="256.41" y2="130.42" gradientTransform="matrix(0.33, 0.95, -0.95, 0.33, 221.11, -197.39)" xlink:href="#Unbenannter_Verlauf_13"/><linearGradient id="Unbenannter_Verlauf_13-3" x1="196.41" y1="183.58" x2="190.96" y2="171.26" gradientTransform="matrix(1.84, -0.52, 0.52, 1.84, -246.2, -42.08)" xlink:href="#Unbenannter_Verlauf_13"/></defs><title>Hosting_for_designers_and_reseller</title><g id="Server_Servers" data-name="Server &amp; Servers"><polygon points="188.8 11.8 188.8 124 247.5 157.9 247.5 45.6 188.8 11.8" opacity="0.25" fill="url(#Unbenannter_Verlauf_14)"/><polygon points="306.2 11.8 306.2 124 247.5 157.9 247.5 45.6 306.2 11.8" fill="url(#Unbenannter_Verlauf_32)"/><polygon points="285.8 0 209.2 0 188.8 11.8 247.5 45.6 306.2 11.8 285.8 0" fill="url(#Unbenannter_Verlauf_37)"/><polygon points="268.4 57.7 268.4 169.9 327 203.8 327 91.5 268.4 57.7" fill="url(#Unbenannter_Verlauf_38)"/><polygon points="385.7 57.7 385.7 169.9 327 203.8 327 91.6 385.7 57.7" fill="url(#Unbenannter_Verlauf_32-2)"/><polygon points="327 91.5 385.7 57.7 327 23.8 268.4 57.7 327 91.5" fill="#f6f7f8"/><polygon points="141.5 8.5 141.5 120.7 82.8 154.6 82.8 42.4 141.5 8.5" fill="url(#Unbenannter_Verlauf_32-3)"/><polygon points="24.1 8.5 24.1 120.7 82.8 154.6 82.8 42.3 24.1 8.5" opacity="0.25" fill="url(#Unbenannter_Verlauf_14-2)"/><polygon points="65.1 62.8 65.1 175 6.5 208.9 6.5 96.7 65.1 62.8" fill="url(#Unbenannter_Verlauf_38-2)"/><polygon points="109.3 57.7 109.3 169.9 168 203.8 168 91.5 109.3 57.7" fill="url(#Unbenannter_Verlauf_38-3)"/><polygon points="226.7 57.7 226.7 169.9 168 203.8 168 91.6 226.7 57.7" fill="url(#Unbenannter_Verlauf_32-4)"/><polygon points="82.8 248.3 141.5 214.4 82.8 180.5 24.1 214.4 82.8 248.3" fill="#263d5d"/><polygon points="82.8 222.1 141.5 188.2 82.8 154.4 24.1 188.2 82.8 222.1" fill="#f6f7f8"/><polygon points="82.8 218.7 138.5 186.5 82.8 154.4 27.1 186.5 82.8 218.7" fill="#263d5d" opacity="0.4"/><polygon points="82.8 242.4 141.5 208.6 141.5 188.2 82.8 222.1 82.8 242.4" fill="#718095"/><polygon points="82.8 242.4 24.1 208.6 24.1 188.2 82.8 222.1 82.8 242.4" fill="#dfe2e7"/><path d="M89.2,231.5l30-17.4a5.7,5.7,0,0,0,2.4-4.6h0c0-1.7-1.1-2.5-2.4-1.8l-30,17.4a5.9,5.9,0,0,0-2.4,4.6h0C86.8,231.4,87.9,232.2,89.2,231.5Z" fill="#263d5d"/><polygon points="82.8 194.9 141.5 161.1 82.8 127.2 24.1 161.1 82.8 194.9" fill="#f6f7f8"/><polygon points="82.8 191.5 138.5 159.4 82.8 127.2 27.1 159.4 82.8 191.5" fill="#263d5d" opacity="0.4"/><polygon points="82.8 215.3 141.5 181.4 141.5 161.1 82.8 194.9 82.8 215.3" fill="#718095"/><polygon points="82.8 215.3 24.1 181.4 24.1 161.1 82.8 194.9 82.8 215.3" fill="#dfe2e7"/><path d="M89.2,204.3l30-17.4a5.7,5.7,0,0,0,2.4-4.5h0c0-1.8-1.1-2.6-2.4-1.8l-30,17.3a5.9,5.9,0,0,0-2.4,4.6h0C86.8,204.2,87.9,205,89.2,204.3Z" fill="#263d5d"/><polygon points="82.8 167.8 141.5 134 82.8 100.1 24.1 134 82.8 167.8" fill="#f6f7f8"/><polygon points="82.8 188.2 141.5 154.3 141.5 134 82.8 167.8 82.8 188.2" fill="#718095"/><polygon points="82.8 188.2 24.1 154.3 24.1 134 82.8 167.8 82.8 188.2" fill="#dfe2e7"/><path d="M89.2,177.2l30-17.4a5.7,5.7,0,0,0,2.4-4.5h0c0-1.8-1.1-2.6-2.4-1.8l-30,17.3a5.9,5.9,0,0,0-2.4,4.6h0C86.8,177.1,87.9,177.9,89.2,177.2Z" fill="#263d5d"/><path d="M78.6,182h0c.4.2.7,0,.7-.5v-10a1.9,1.9,0,0,0-.7-1.4h0c-.3-.2-.7.1-.7.6v10A1.9,1.9,0,0,0,78.6,182Z" fill="#95a0b0"/><path d="M75.8,180.7h0c.4.2.7,0,.7-.5v-10a1.9,1.9,0,0,0-.7-1.4h0c-.4-.2-.7.1-.7.6v10A1.6,1.6,0,0,0,75.8,180.7Z" fill="#95a0b0"/><path d="M72.8,179h0c.4.2.7,0,.7-.5v-10a1.9,1.9,0,0,0-.7-1.4h0c-.3-.2-.6.1-.6.6v10A1.8,1.8,0,0,0,72.8,179Z" fill="#95a0b0"/><path d="M78.6,209.2h0c.4.2.7,0,.7-.5v-10a1.6,1.6,0,0,0-.7-1.4h0c-.3-.2-.7,0-.7.5v10.1A1.9,1.9,0,0,0,78.6,209.2Z" fill="#95a0b0"/><path d="M75.8,207.9h0c.4.2.7,0,.7-.6v-10a1.6,1.6,0,0,0-.7-1.3h0c-.4-.2-.7,0-.7.5v10A1.6,1.6,0,0,0,75.8,207.9Z" fill="#95a0b0"/><path d="M72.8,206.2h0c.4.2.7,0,.7-.5v-10a1.6,1.6,0,0,0-.7-1.4h0c-.3-.2-.6,0-.6.5v10.1A1.8,1.8,0,0,0,72.8,206.2Z" fill="#95a0b0"/><path d="M78.6,236.4h0c.4.2.7-.1.7-.6v-10a1.6,1.6,0,0,0-.7-1.3h0c-.3-.2-.7,0-.7.5v10A2.3,2.3,0,0,0,78.6,236.4Z" fill="#95a0b0"/><path d="M75.8,235.1h0c.4.2.7-.1.7-.6v-10a1.6,1.6,0,0,0-.7-1.3h0c-.4-.2-.7,0-.7.5v10A1.9,1.9,0,0,0,75.8,235.1Z" fill="#95a0b0"/><path d="M72.8,233.4h0c.4.2.7-.1.7-.6v-10a1.6,1.6,0,0,0-.7-1.3h0c-.3-.2-.6,0-.6.5v10A2.2,2.2,0,0,0,72.8,233.4Z" fill="#95a0b0"/><ellipse cx="133.8" cy="202.8" rx="2.2" ry="1.3" transform="translate(-108.7 217.2) rotate(-60)" fill="#ffd7b3"/><ellipse cx="129.8" cy="205" rx="2.2" ry="1.3" transform="translate(-112.6 214.9) rotate(-60)" fill="#70ddf0"/><ellipse cx="133.8" cy="174.7" rx="2.2" ry="1.3" transform="translate(-84.4 203.2) rotate(-60)" fill="#70ddf0"/><ellipse cx="129.8" cy="176.9" rx="2.2" ry="1.3" transform="translate(-88.3 200.8) rotate(-60)" fill="#70ddf0"/><ellipse cx="133.8" cy="149.6" rx="2.2" ry="1.3" transform="translate(-62.7 190.6) rotate(-60)" fill="#70ddf0"/><ellipse cx="129.8" cy="151.8" rx="2.2" ry="1.3" transform="translate(-66.5 188.3) rotate(-60)" fill="#ffd7b3"/><polygon points="82.8 164.4 138.5 132.3 82.8 100.1 27.1 132.3 82.8 164.4" fill="#263d5d" opacity="0.4"/><polygon points="82.8 140.7 141.5 106.9 82.8 73 24.1 106.9 82.8 140.7" fill="#f6f7f8"/><polygon points="82.8 161.1 141.5 127.2 141.5 106.9 82.8 140.7 82.8 161.1" fill="#718095"/><polygon points="82.8 161.1 24.1 127.2 24.1 106.9 82.8 140.7 82.8 161.1" fill="#dfe2e7"/><path d="M89.2,150.1l30-17.4a5.7,5.7,0,0,0,2.4-4.5h0c0-1.8-1.1-2.6-2.4-1.8l-30,17.3a5.9,5.9,0,0,0-2.4,4.6h0C86.8,150,87.9,150.8,89.2,150.1Z" fill="#263d5d"/><path d="M78.6,154.9h0c.4.2.7,0,.7-.5v-10a1.9,1.9,0,0,0-.7-1.4h0c-.3-.2-.7.1-.7.6v10A1.9,1.9,0,0,0,78.6,154.9Z" fill="#95a0b0"/><path d="M75.8,153.6h0c.4.2.7,0,.7-.5v-10a1.9,1.9,0,0,0-.7-1.4h0c-.4-.2-.7.1-.7.6v10A1.6,1.6,0,0,0,75.8,153.6Z" fill="#95a0b0"/><path d="M72.8,151.9h0c.4.2.7,0,.7-.5v-10a1.9,1.9,0,0,0-.7-1.4h0c-.3-.2-.6.1-.6.6v10A1.8,1.8,0,0,0,72.8,151.9Z" fill="#95a0b0"/><ellipse cx="133.8" cy="122.5" rx="2.2" ry="1.3" transform="translate(-39.2 177.1) rotate(-60)" fill="#70ddf0"/><ellipse cx="129.8" cy="124.7" rx="2.2" ry="1.3" transform="translate(-43.1 174.7) rotate(-60)" fill="#ffd7b3"/><polygon points="168 91.6 226.7 57.7 168 23.8 109.3 57.7 168 91.6" fill="#f6f7f8"/><polygon points="6.5 28.9 0 32.6 0 92.9 6.5 96.7 65.1 62.8 6.5 28.9" fill="url(#Unbenannter_Verlauf_39)"/><polygon points="38.8 0 24.1 8.5 82.8 42.4 141.5 8.5 126.8 0 38.8 0" fill="url(#Unbenannter_Verlauf_39-2)"/><polygon points="188.8 103.6 188.8 215.8 247.5 249.7 247.5 137.4 188.8 103.6" fill="url(#Unbenannter_Verlauf_38-4)"/><polygon points="306.2 103.6 306.2 215.8 247.5 249.7 247.5 137.5 306.2 103.6" fill="url(#Unbenannter_Verlauf_32-5)"/><polygon points="247.5 137.4 306.2 103.6 247.5 69.7 188.8 103.6 247.5 137.4" fill="#f6f7f8"/><polygon points="162.3 294.2 221 260.3 162.3 226.4 103.6 260.3 162.3 294.2" fill="#263d5d"/><polygon points="162.3 268 221 234.1 162.3 200.3 103.6 234.1 162.3 268" fill="#f6f7f8"/><polygon points="162.3 264.6 218.1 232.5 162.3 200.3 106.6 232.5 162.3 264.6" fill="#263d5d" opacity="0.4"/><polygon points="162.3 288.3 221 254.5 221 234.1 162.3 268 162.3 288.3" fill="#718095"/><polygon points="162.3 288.3 103.6 254.5 103.7 234.1 162.3 268 162.3 288.3" fill="#dfe2e7"/><path d="M168.7,277.4l30-17.4a5.4,5.4,0,0,0,2.4-4.5h0c0-1.8-1-2.6-2.4-1.9l-30,17.4a5.9,5.9,0,0,0-2.4,4.6h0C166.3,277.3,167.4,278.1,168.7,277.4Z" fill="#263d5d"/><polygon points="162.3 240.8 221 207 162.3 173.1 103.6 207 162.3 240.8" fill="#f6f7f8"/><polygon points="162.3 261.2 221 227.3 221 207 162.3 240.8 162.3 261.2" fill="#718095"/><polygon points="162.3 261.2 103.6 227.3 103.7 207 162.3 240.8 162.3 261.2" fill="#dfe2e7"/><path d="M168.7,250.2l30-17.4a5.4,5.4,0,0,0,2.4-4.5h0c0-1.8-1-2.6-2.4-1.8l-30,17.3a5.9,5.9,0,0,0-2.4,4.6h0C166.3,250.1,167.4,250.9,168.7,250.2Z" fill="#263d5d"/><path d="M158.2,255.1h0c.3.2.6,0,.6-.5v-10a1.8,1.8,0,0,0-.6-1.4h0c-.4-.2-.7,0-.7.6v10A1.6,1.6,0,0,0,158.2,255.1Z" fill="#95a0b0"/><path d="M155.3,253.8h0c.4.2.7,0,.7-.5V243.2a1.6,1.6,0,0,0-.7-1.3h0c-.4-.2-.7,0-.7.5v10A1.6,1.6,0,0,0,155.3,253.8Z" fill="#95a0b0"/><path d="M152.4,252.1h0c.3.2.7,0,.7-.5v-10a1.9,1.9,0,0,0-.7-1.4h0c-.4-.2-.7,0-.7.6v10A1.6,1.6,0,0,0,152.4,252.1Z" fill="#95a0b0"/><path d="M158.2,282.3h0c.3.2.6-.1.6-.6v-10a1.8,1.8,0,0,0-.6-1.3h0c-.4-.2-.7,0-.7.5v10A1.9,1.9,0,0,0,158.2,282.3Z" fill="#95a0b0"/><path d="M155.3,281h0c.4.2.7-.1.7-.6v-10a1.6,1.6,0,0,0-.7-1.3h0c-.4-.2-.7,0-.7.5v10A1.9,1.9,0,0,0,155.3,281Z" fill="#95a0b0"/><path d="M152.4,279.3h0c.3.2.7-.1.7-.6v-10a1.9,1.9,0,0,0-.7-1.3h0c-.4-.2-.7,0-.7.5v10A1.9,1.9,0,0,0,152.4,279.3Z" fill="#95a0b0"/><ellipse cx="213.3" cy="248.7" rx="2.2" ry="1.3" transform="translate(-108.7 309.1) rotate(-60)" fill="#ffd7b3"/><ellipse cx="209.3" cy="250.9" rx="2.2" ry="1.3" transform="translate(-112.6 306.7) rotate(-60)" fill="#70ddf0"/><ellipse cx="213.3" cy="220.6" rx="2.2" ry="1.3" transform="translate(-84.4 295) rotate(-60)" fill="#70ddf0"/><ellipse cx="209.3" cy="222.8" rx="2.2" ry="1.3" transform="translate(-88.3 292.6) rotate(-60)" fill="#70ddf0"/><polygon points="259.5 350 318.2 316.2 259.5 282.3 200.8 316.2 259.5 350" fill="#263d5d"/><polygon points="259.5 323.9 318.2 290 259.5 256.1 200.8 290 259.5 323.9" fill="#f6f7f8"/><polygon points="259.5 320.5 315.3 288.3 259.5 256.1 203.8 288.3 259.5 320.5" fill="#263d5d" opacity="0.4"/><polygon points="259.5 344.2 318.2 310.3 318.2 290 259.5 323.9 259.5 344.2" fill="#718095"/><polygon points="259.5 344.2 200.8 310.3 200.8 290 259.5 323.9 259.5 344.2" fill="#dfe2e7"/><path d="M265.9,333.2l30-17.3a5.6,5.6,0,0,0,2.4-4.6h0c0-1.7-1-2.6-2.4-1.8l-30,17.4a5.7,5.7,0,0,0-2.4,4.5h0C263.5,333.2,264.6,334,265.9,333.2Z" fill="#263d5d"/><polygon points="259.5 296.7 318.2 262.8 259.5 228.9 200.8 262.8 259.5 296.7" fill="#f6f7f8"/><polygon points="259.5 293.3 315.3 261.1 259.5 228.9 203.8 261.1 259.5 293.3" fill="#263d5d" opacity="0.4"/><polygon points="259.5 317 318.2 283.1 318.2 262.8 259.5 296.7 259.5 317" fill="#718095"/><polygon points="259.5 317 200.8 283.1 200.8 262.8 259.5 296.7 259.5 317" fill="#dfe2e7"/><path d="M265.9,306l30-17.3a5.6,5.6,0,0,0,2.4-4.6h0c0-1.7-1-2.5-2.4-1.8l-30,17.4a5.7,5.7,0,0,0-2.4,4.5h0C263.5,306,264.6,306.8,265.9,306Z" fill="#263d5d"/><polygon points="259.5 269.6 318.2 235.7 259.5 201.8 200.8 235.7 259.5 269.6" fill="#f6f7f8"/><polygon points="259.5 289.9 318.2 256 318.2 235.7 259.5 269.6 259.5 289.9" fill="#718095"/><polygon points="259.5 289.9 200.8 256 200.8 235.7 259.5 269.6 259.5 289.9" fill="#dfe2e7"/><path d="M265.9,278.9l30-17.3a5.6,5.6,0,0,0,2.4-4.6h0c0-1.7-1-2.5-2.4-1.8l-30,17.4a5.7,5.7,0,0,0-2.4,4.5h0C263.5,278.9,264.6,279.7,265.9,278.9Z" fill="#263d5d"/><path d="M255.3,283.8h0c.4.2.7-.1.7-.6v-10a1.6,1.6,0,0,0-.7-1.3h0c-.3-.2-.7,0-.7.5v10A2.3,2.3,0,0,0,255.3,283.8Z" fill="#95a0b0"/><path d="M252.5,282.4h0c.4.3.7,0,.7-.5v-10a1.6,1.6,0,0,0-.7-1.3h0c-.4-.2-.7,0-.7.5v10A1.6,1.6,0,0,0,252.5,282.4Z" fill="#95a0b0"/><path d="M249.6,280.8h0c.3.2.6-.1.6-.6v-10a1.8,1.8,0,0,0-.6-1.3h0c-.4-.2-.7,0-.7.5v10A1.9,1.9,0,0,0,249.6,280.8Z" fill="#95a0b0"/><path d="M255.3,310.9h0c.4.3.7,0,.7-.5v-10a1.6,1.6,0,0,0-.7-1.3h0c-.3-.2-.7,0-.7.5v10A1.9,1.9,0,0,0,255.3,310.9Z" fill="#95a0b0"/><path d="M252.5,309.6h0c.4.2.7,0,.7-.5v-10a1.6,1.6,0,0,0-.7-1.3h0c-.4-.2-.7,0-.7.5v10A1.6,1.6,0,0,0,252.5,309.6Z" fill="#95a0b0"/><path d="M249.6,307.9h0c.3.3.6,0,.6-.5v-10a1.8,1.8,0,0,0-.6-1.3h0c-.4-.2-.7,0-.7.5v10A1.6,1.6,0,0,0,249.6,307.9Z" fill="#95a0b0"/><path d="M255.3,338.1h0c.4.2.7,0,.7-.5v-10a1.6,1.6,0,0,0-.7-1.3h0c-.3-.3-.7,0-.7.5v10A1.9,1.9,0,0,0,255.3,338.1Z" fill="#95a0b0"/><path d="M252.5,336.8h0c.4.2.7,0,.7-.5v-10a1.6,1.6,0,0,0-.7-1.3h0c-.4-.3-.7,0-.7.5v10A1.6,1.6,0,0,0,252.5,336.8Z" fill="#95a0b0"/><path d="M249.6,335.1h0c.3.2.6,0,.6-.5v-10a1.8,1.8,0,0,0-.6-1.3h0c-.4-.3-.7,0-.7.5v10A1.6,1.6,0,0,0,249.6,335.1Z" fill="#95a0b0"/><ellipse cx="310.5" cy="304.6" rx="2.2" ry="1.3" transform="translate(-108.5 421.2) rotate(-60)" fill="#ffd7b3"/><ellipse cx="306.5" cy="306.7" rx="2.2" ry="1.3" transform="translate(-112.4 418.8) rotate(-60)" fill="#70ddf0"/><ellipse cx="310.5" cy="276.5" rx="2.2" ry="1.3" transform="translate(-84.2 407.1) rotate(-60)" fill="#70ddf0"/><ellipse cx="306.5" cy="278.7" rx="2.2" ry="1.3" transform="translate(-88.1 404.7) rotate(-60)" fill="#70ddf0"/><ellipse cx="310.5" cy="251.3" rx="2.2" ry="1.3" transform="translate(-62.4 394.5) rotate(-60)" fill="#70ddf0"/><ellipse cx="306.5" cy="253.5" rx="2.2" ry="1.3" transform="translate(-66.3 392.2) rotate(-60)" fill="#ffd7b3"/><polygon points="259.5 266.2 315.3 234 259.5 201.8 203.8 234 259.5 266.2" fill="#263d5d" opacity="0.4"/><polygon points="259.5 242.5 318.2 208.6 259.5 174.7 200.8 208.6 259.5 242.5" fill="#f6f7f8"/><polygon points="259.5 262.8 318.2 228.9 318.2 208.6 259.5 242.5 259.5 262.8" fill="#718095"/><polygon points="259.5 262.8 200.8 228.9 200.8 208.6 259.5 242.5 259.5 262.8" fill="#dfe2e7"/><path d="M265.9,251.8l30-17.3a5.6,5.6,0,0,0,2.4-4.6h0c0-1.7-1-2.5-2.4-1.8l-30,17.4a5.7,5.7,0,0,0-2.4,4.5h0C263.5,251.8,264.6,252.6,265.9,251.8Z" fill="#263d5d"/><path d="M255.3,256.7h0c.4.2.7-.1.7-.6v-10a1.6,1.6,0,0,0-.7-1.3h0c-.3-.2-.7,0-.7.5v10A2.3,2.3,0,0,0,255.3,256.7Z" fill="#95a0b0"/><path d="M252.5,255.3h0c.4.3.7,0,.7-.5v-10a1.6,1.6,0,0,0-.7-1.3h0c-.4-.2-.7,0-.7.5v10A1.6,1.6,0,0,0,252.5,255.3Z" fill="#95a0b0"/><path d="M249.6,253.7h0c.3.2.6-.1.6-.6v-10a1.8,1.8,0,0,0-.6-1.3h0c-.4-.2-.7,0-.7.5v10A1.9,1.9,0,0,0,249.6,253.7Z" fill="#95a0b0"/><ellipse cx="310.5" cy="224.2" rx="2.2" ry="1.3" transform="translate(-39 381) rotate(-60)" fill="#70ddf0"/><ellipse cx="306.5" cy="226.4" rx="2.2" ry="1.3" transform="translate(-42.8 378.6) rotate(-60)" fill="#ffd7b3"/></g><g id="Ebene_1" data-name="Ebene 1"><path d="M240,130.2l-17.5,10.1s-3.1,2.6-2.1-.6,3.1-10.7,3.1-10.7-6.6-1.1-7.4-2.3-10.9,26.5-4.8,29.4c3.9,1.9,25.1-8.6,27.1-10.5S241.3,133.6,240,130.2Z" fill="#001b41"/><path d="M217.7,122.3l-1.2,4.9s3.9,2.6,4.7,2.3a1.6,1.6,0,0,1,1.3.2s1.1-3.1,1.1-3.5S217.7,122.3,217.7,122.3Z" fill="#fae1bd"/><path d="M219.3,117.1l-2.2,7.2c.2,1.3,4.9,1.8,6.8,2,3.4.4,5.3-3.6,6.3-4.8s.1-7-2.3-7.5C227.9,114,221.5,110,219.3,117.1Z" fill="#fae1bd"/><path d="M219.8,270.5s5.3,5.6,3,7.6-7.9,5.6-8.5,6.7-4.5,4.3-7.1,4.9-3.6-1.9-1.9-3.4,4.7-4.6,5-6.7,2.2-4.4,3-5.2A69,69,0,0,1,219.8,270.5Z" fill="#0a90c4"/><path d="M249,237.5a42.7,42.7,0,0,0,4.4.1c1.8-.2,19.5-15.7,20.4-16,11.3-3.6,1.6-18.3-4.1-19.7s-24.9-1.3-24.9-1.3l.7,27Z" fill="#718095" opacity="0.3"/><path d="M273.5,205s1.2,13.9-34.1,46.2c-8,7.3-11.4,39.4-11.9,41.4s-8.1,1.3-8.1,1.3l3.6-44.5s0-6.4,3.4-9.5L247.2,212l-31.4,15.5s-4.4,1.6-2.3,10l8.3,34.7s-7.3,4.7-8.1,2.7c-4.8-12.4-14.2-36.7-16.9-49-.6-2.5-1.2-4,3.6-7.4s37.2-23,37.2-23,2.8,8.1,25.6,11.9C267,208,273.2,206.5,273.5,205Z" fill="url(#Neues_Verlaufsfeld_30)"/><path d="M238.1,196.9s5.1,7.7,24.4,10.8c5.9.9,8.5,2.9,11.7-3.4.6-1.2.9-3.5,1.5-5.2,1.3-3.6,4.5-41.6,3.8-47.3s.4-14.2-19.5-21.9c-1.3-.5-11.6-2.2-20.7.5-1.4.5-4.3,8.2-1.4,15.4.6,1.3,2.1,9.8,1.8,15.3C239.6,162.7,236,195.8,238.1,196.9Z" fill="url(#Unbenannter_Verlauf_15)"/><path d="M263.9,123.7l-2.2,8.9c-1.7,2.3-10,.6-9-2.2l-1.2-6.8a1.2,1.2,0,0,1,1.2-1.4l10.1,1.1C263.5,123.4,264.1,123,263.9,123.7Z" fill="#e5c39e"/><path d="M265.1,123.3s-10.1,4.8-13.5,3.5-5.9-7.2-5.8-11.8.5-15,8.6-19.5,14.8-.2,16.7,3,5.2,9.8,3.8,11.8S271.1,120.9,265.1,123.3Z" fill="#fae1bd"/><path d="M282.2,104.5c-2.1-9.9-8.6-11.5-15.6-13.9s-16,.8-13.7,4.9a11.8,11.8,0,0,0,5,4.9c8.7,3.7,9.4,7,8.4,8.6a18.5,18.5,0,0,0-.9,2.3,3.3,3.3,0,0,1,3.3.7c1.4,1.3.4,2.6-.9,4s-2.2,2.1-3.5,1.1a102.8,102.8,0,0,0-.4,10.3c4.3.1,7.2-1.7,8.8-5.4S284.3,114.4,282.2,104.5Z" fill="#031434"/><polygon points="233.7 234.5 262 220.3 222.3 195 194 208.3 233.7 234.5" fill="#263d5d"/><polygon points="233.8 232.7 262.1 218.5 222.5 192.3 194.2 206.5 233.8 232.7" fill="#f6f7f8"/><polygon points="262.1 218.5 262 220.3 233.7 234.5 233.8 232.7 262.1 218.5" fill="#718095"/><polygon points="194.2 206.5 194 208.3 233.7 234.5 233.8 232.7 194.2 206.5" fill="#263d5d"/><path d="M226.6,206.8l9.8,6.4a1.1,1.1,0,0,0,1.2.1l5.7-2.8a.4.4,0,0,0,0-.7l-9.8-6.4a1.1,1.1,0,0,0-1.2-.1l-5.6,2.8C226.3,206.3,226.3,206.6,226.6,206.8Z" fill="url(#Unbenannter_Verlauf_21)"/><path d="M207.3,208l24.3,16a2.6,2.6,0,0,0,2.3.2l8-4c.7-.4.7-1,.1-1.4l-24.2-16a2.7,2.7,0,0,0-2.3-.1l-8.1,4A.7.7,0,0,0,207.3,208Z" fill="#dfe2e7"/><polygon points="194.2 206.5 185.4 184.3 225.1 210.5 233.8 232.7 194.2 206.5" fill="#95a0b0"/><g id="DollarCoin"><circle cx="192.3" cy="150.5" r="10" transform="translate(40.4 341.6) rotate(-89.6)" fill="url(#Unbenannter_Verlauf_13)"/><path d="M196.4,151.3a2.2,2.2,0,0,1-.4,1.9,4.2,4.2,0,0,1-2.1,1.3l.3,1.5-.9.2-.3-1.5a8,8,0,0,1-3.1,0l-.2-1.5,1.5.2h1.5l-.5-2.7h-.6a4.7,4.7,0,0,1-2-.7,2.8,2.8,0,0,1-.8-1.5,2,2,0,0,1,.4-1.8,4.8,4.8,0,0,1,2-1.2l-.2-1.2h.9l.2,1.1a9.3,9.3,0,0,1,2.9.1l-.2,1.4a9.7,9.7,0,0,0-2.4-.1l.5,2.6h.6a5.4,5.4,0,0,1,2.1.8A2.2,2.2,0,0,1,196.4,151.3Zm-5.9-3.3a.7.7,0,0,0,.4.6,1.9,1.9,0,0,0,1,.4l-.4-2.3a2,2,0,0,0-.9.6A.8.8,0,0,0,190.5,148Zm4.2,3.8a1,1,0,0,0-.4-.7l-1.1-.3.5,2.3C194.5,152.8,194.9,152.4,194.7,151.8Z" fill="#af823c"/><path d="M195.8,150.9a2.3,2.3,0,0,1-.5,1.8,3.7,3.7,0,0,1-2,1.3l.3,1.6-1,.2-.3-1.6a10.4,10.4,0,0,1-3,.1l-.3-1.6a6.6,6.6,0,0,0,1.5.3h1.6l-.6-2.7h-.6a3.7,3.7,0,0,1-1.9-.8,2.2,2.2,0,0,1-.4-3.2,4.4,4.4,0,0,1,1.9-1.2l-.2-1.2,1-.2.2,1.2a9.4,9.4,0,0,1,2.9,0l-.3,1.5a6.5,6.5,0,0,0-2.4-.1l.6,2.6h.5a7.1,7.1,0,0,1,2.2.7A3.2,3.2,0,0,1,195.8,150.9Zm-6-3.4a1.6,1.6,0,0,0,.4.7l1,.3-.4-2.2a1.2,1.2,0,0,0-.8.5A1,1,0,0,0,189.8,147.5Zm4.3,3.8c-.1-.3-.2-.5-.5-.6a1.9,1.9,0,0,0-1-.4l.4,2.3C193.8,152.3,194.2,151.9,194.1,151.3Z" fill="#fcecca"/></g><g id="EuroCoin"><circle cx="170.2" cy="124" r="12.5" transform="translate(-34.2 73.2) rotate(-22.1)" fill="url(#Unbenannter_Verlauf_20)"/><path d="M169.8,119a2.7,2.7,0,0,0-1.8,1.3,3.7,3.7,0,0,0-.5,2.5l4.1-1.1.3,1.3-4.1,1.2v1.2l3.6-1,.4,1.4-3.5.9c.9,1.8,2.2,2.4,4,1.9a5.6,5.6,0,0,0,2.4-1.3l.5,1.8a5.9,5.9,0,0,1-2.5,1.3,5.4,5.4,0,0,1-3.8-.2,5.4,5.4,0,0,1-2.6-2.9l-1.4.4-.4-1.4,1.2-.3v-.7l-.2-.5-1.2.3-.4-1.4,1.4-.3a5.8,5.8,0,0,1,.7-4,5.1,5.1,0,0,1,3.1-2.2,7.9,7.9,0,0,1,3.4-.1l-.3,1.9A5.7,5.7,0,0,0,169.8,119Z" fill="#af823c"/><path d="M168.9,118.5a2.7,2.7,0,0,0-1.8,1.3,3.8,3.8,0,0,0-.4,2.5l4-1.1.4,1.3-4.2,1.2v.9l.2.3,3.6-1,.3,1.4-3.4.9c.9,1.8,2.2,2.4,3.9,1.9a6.7,6.7,0,0,0,2.5-1.3l.5,1.8a7.1,7.1,0,0,1-2.6,1.3,5.4,5.4,0,0,1-3.8-.2,6.2,6.2,0,0,1-2.6-2.9l-1.4.4-.3-1.4,1.2-.3v-.7l-.2-.5-1.2.3-.3-1.4,1.3-.3a6.4,6.4,0,0,1,.7-4,5.1,5.1,0,0,1,3.2-2.2,7.4,7.4,0,0,1,3.3-.1l-.3,1.9A5.7,5.7,0,0,0,168.9,118.5Z" fill="#fcecca"/></g><circle cx="184.7" cy="78.4" r="16.4" transform="translate(48.6 225.8) rotate(-70.3)" fill="url(#Unbenannter_Verlauf_13-2)"/><path d="M186.7,68.7a10.3,10.3,0,0,1,4.5,1.1l-1,2.1a7.8,7.8,0,0,0-3.3-.9c-1.7,0-2.5.9-2.5,2.6v2.9h4.8v2.1h-4.8v2.2a4.8,4.8,0,0,1-.4,1.8,3.5,3.5,0,0,1-1.4,1.3h9v2.5H179.1V84a3.3,3.3,0,0,0,1.8-1.1,5.3,5.3,0,0,0,.6-2.1V78.6h-2.3v-2h2.2V73.4a5.1,5.1,0,0,1,1.4-3.5A5.8,5.8,0,0,1,186.7,68.7Z" fill="#af823c"/><path d="M185.8,67.8a10.5,10.5,0,0,1,4.5,1l-1,2.2a8.2,8.2,0,0,0-3.4-.9c-1.6,0-2.4.8-2.4,2.6v2.9h4.8v2h-4.7v2.1a3.6,3.6,0,0,1-.5,1.9,3.2,3.2,0,0,1-1.3,1.3h9v2.5l-12.4-.2V83.1A3.3,3.3,0,0,0,180,82a4.8,4.8,0,0,0,.5-2.2V77.6h-2.3V75.5h2.3V72.5A4.5,4.5,0,0,1,182,69,5.6,5.6,0,0,1,185.8,67.8Z" fill="#fcecca"/><path d="M237.5,194s-6.5.8-8.4,2.2a17.4,17.4,0,0,0-4.4,4.5c-.3.7,1.6.3,3-.2a3,3,0,0,1-2,2.5c-1.9.6-2.2,2.8-.7,3.1s7.2,4.3,8.6,3.1,6.2-3,6-7.1C239.4,199.9,239.1,194.3,237.5,194Z" fill="#fae1bd"/><path d="M238.2,203.1l6-4.9s-3.2-4-4.1-4.3a1.4,1.4,0,0,1-1.1-1.1,40.4,40.4,0,0,0-3.6,2.5C235.2,195.7,238.2,203.1,238.2,203.1Z" fill="#fae1bd"/><path d="M278.3,142.1c5.6,4,4.9,22.9,3.3,26.2s-2.8,10.9-15,18.3c-4.9,2.9-21,11.7-23,12.2s-4.9-3.1-6-4.5a.6.6,0,0,1,.1-.9c4.2-2.4,29.1-17.5,30.4-31.4,0,0-2.7-14-.7-17.9S275,139.8,278.3,142.1Z" fill="#001b41"/><path d="M227.5,291.8s-.2,10.4-7.1,14.4c-2.2,1.3-9.5,4.2-6.3-2s3.8-12.9,6.7-13.5S227.5,291.8,227.5,291.8Z" fill="#0a90c4"/><circle cx="218.7" cy="176.2" r="11.7" transform="translate(-16.5 22.8) rotate(-5.7)" fill="#f765a6"/><path d="M225.1,175.6a2.9,2.9,0,0,0-2.2-3c-1.8-.5-3.6,1.2-3.6,1.3s-.9-2.4-2.7-2.8a2.9,2.9,0,0,0-3.3,1.7s-1.8,3,4.1,9.1h0C225.4,179.1,225.1,175.6,225.1,175.6Z" fill="#b73976"/><path d="M225.3,174.9a2.9,2.9,0,0,0-2.2-3c-1.9-.4-3.6,1.3-3.7,1.3s-.8-2.4-2.6-2.8a2.9,2.9,0,0,0-3.3,1.7s-1.9,3,4,9.1h0C225.6,178.4,225.3,174.9,225.3,174.9Z" fill="#fff" opacity="0.9"/><circle cx="202.1" cy="181.9" r="10.1" transform="translate(-8.3 9.7) rotate(-2.7)" fill="#fff"/><polygon points="200.1 175.6 203 178.7 207.2 178.1 205.1 181.8 206.9 185.6 202.8 184.8 199.7 187.7 199.2 183.5 195.5 181.5 199.4 179.7 200.1 175.6" fill="url(#Unbenannter_Verlauf_13-3)"/></g></svg>